<svg id="svg" xmlns="http://www.w3.org/2000/svg" xmlns:xlink="http://www.w3.org/1999/xlink" width="400" height="302.1097046413502" viewBox="0, 0, 400,302.1097046413502" version="1.1"><g id="svgg"><path id="path0" d="M208.603 1.629 C 207.254 2.260,183.787 13.592,180.816 15.047 C 180.151 15.373,178.660 16.080,177.502 16.618 C 156.501 26.378,149.411 30.664,138.692 40.079 C 129.091 48.511,118.127 64.370,118.127 69.824 C 118.127 71.261,117.248 71.651,111.027 72.977 C 106.746 73.890,103.190 74.865,101.662 75.545 C 101.329 75.693,100.310 76.096,99.396 76.440 C 82.276 82.893,72.745 95.125,72.819 110.547 C 72.924 132.284,85.404 151.173,109.046 165.380 C 114.522 168.671,125.865 174.273,129.456 175.462 C 134.440 177.111,136.998 177.912,138.218 178.205 C 138.882 178.365,140.514 178.769,141.843 179.103 C 143.172 179.436,145.247 179.939,146.453 180.220 C 147.659 180.501,148.718 180.847,148.805 180.989 C 148.926 181.184,143.890 187.370,142.921 188.218 C 142.826 188.301,141.525 189.796,140.030 191.541 C 134.473 198.027,134.407 198.075,132.261 197.160 C 131.715 196.928,130.725 196.527,130.060 196.269 C 129.396 196.011,127.221 195.165,125.227 194.390 C 119.977 192.348,110.350 188.954,107.704 188.212 C 107.205 188.072,106.084 187.744,105.211 187.483 C 101.200 186.284,100.347 186.037,98.792 185.620 C 96.476 185.001,93.718 184.380,90.181 183.681 C 88.520 183.353,86.548 182.945,85.801 182.775 C 83.902 182.343,78.096 181.873,72.205 181.676 C 51.226 180.973,36.786 190.313,30.562 208.610 C 25.428 223.703,30.241 237.854,44.040 248.239 C 47.947 251.180,54.423 254.083,65.861 258.021 C 66.941 258.393,68.369 258.896,69.033 259.139 C 73.314 260.706,81.179 262.221,89.139 263.013 C 94.829 263.579,114.265 263.489,119.789 262.872 C 121.450 262.686,124.917 262.322,127.492 262.065 C 134.655 261.347,144.902 260.143,154.426 258.898 C 156.950 258.568,158.007 258.720,158.610 259.500 C 158.693 259.608,159.645 260.368,160.725 261.189 C 161.805 262.010,162.961 262.913,163.293 263.196 C 163.625 263.478,166.073 265.429,168.731 267.530 C 171.390 269.631,173.837 271.579,174.169 271.857 C 174.502 272.136,175.657 273.036,176.737 273.857 C 177.817 274.678,178.769 275.430,178.852 275.529 C 178.935 275.627,179.887 276.380,180.967 277.201 C 182.047 278.022,183.202 278.925,183.535 279.208 C 183.867 279.490,186.314 281.441,188.973 283.542 C 191.631 285.643,194.079 287.592,194.411 287.872 C 195.504 288.792,200.043 292.283,201.013 292.948 L 201.964 293.600 206.949 292.572 C 209.690 292.007,212.953 291.326,214.199 291.059 C 215.446 290.793,217.009 290.466,217.674 290.332 C 218.338 290.199,219.834 289.870,220.997 289.601 C 222.160 289.332,223.724 288.988,224.471 288.835 C 225.840 288.556,230.752 287.359,233.837 286.553 C 234.751 286.315,236.586 285.852,237.915 285.524 C 243.203 284.223,252.935 281.281,258.459 279.313 C 260.619 278.543,263.202 277.629,264.199 277.281 C 265.196 276.933,267.225 276.124,268.708 275.484 C 270.190 274.844,271.512 274.320,271.645 274.320 C 271.937 274.320,274.051 273.363,279.407 270.804 C 282.973 269.100,284.780 268.146,290.785 264.796 C 298.689 260.387,311.656 250.242,316.314 244.823 C 316.730 244.340,317.894 242.996,318.901 241.836 C 326.361 233.248,332.128 222.600,335.342 211.480 C 335.702 210.234,336.108 208.875,336.245 208.459 C 339.368 198.953,339.649 185.648,336.960 174.622 C 332.964 158.232,320.781 141.982,303.927 130.562 C 297.089 125.927,276.578 114.804,274.871 114.804 C 274.635 114.804,274.312 114.683,274.154 114.535 C 273.996 114.388,272.168 113.567,270.091 112.711 C 268.014 111.855,266.042 111.040,265.710 110.900 C 265.378 110.761,264.494 110.410,263.746 110.121 C 262.998 109.832,262.115 109.477,261.782 109.331 C 260.903 108.947,254.763 106.668,253.172 106.135 C 252.424 105.885,251.405 105.495,250.906 105.268 C 250.408 105.041,248.573 104.387,246.828 103.814 C 241.960 102.217,241.321 101.901,241.663 101.262 C 241.821 100.967,254.746 88.029,270.385 72.511 C 289.449 53.594,298.789 44.125,298.730 43.775 C 298.583 42.915,293.901 37.160,293.348 37.160 C 293.068 37.160,290.083 39.845,286.714 43.127 C 283.345 46.409,280.397 49.205,280.162 49.342 C 279.614 49.660,278.904 49.250,269.789 43.356 C 266.722 41.374,252.002 31.610,250.151 30.331 C 246.081 27.519,242.378 24.911,237.506 21.425 C 234.623 19.362,231.700 17.274,231.011 16.787 C 230.322 16.299,226.716 13.580,222.997 10.744 C 213.165 3.249,212.902 3.047,212.183 2.425 C 210.435 0.913,210.231 0.868,208.603 1.629 M186.427 34.318 C 187.993 34.583,190.227 35.070,191.390 35.401 C 192.553 35.732,193.912 36.113,194.411 36.247 C 199.138 37.520,198.727 37.361,205.136 40.400 C 212.621 43.951,224.658 52.015,228.701 56.189 C 228.784 56.275,229.396 56.808,230.060 57.373 C 237.233 63.472,250.151 77.385,250.151 79.011 C 250.151 79.622,229.968 99.538,229.233 99.653 C 228.858 99.712,226.988 99.534,225.076 99.259 C 221.128 98.691,215.911 97.984,213.897 97.745 C 208.559 97.111,207.364 96.941,201.057 95.919 C 189.211 93.999,186.743 93.418,177.644 90.409 C 156.756 83.500,147.067 71.507,150.124 56.344 C 150.292 55.514,150.571 53.907,150.745 52.774 C 152.658 40.310,169.707 31.492,186.427 34.318 M118.126 81.268 C 118.304 81.600,118.589 82.653,118.760 83.609 C 119.266 86.434,120.512 89.858,122.748 94.562 C 125.705 100.784,134.175 109.306,141.843 113.773 C 145.222 115.741,145.899 116.102,148.943 117.553 C 154.485 120.197,155.993 120.801,161.743 122.680 C 164.257 123.502,166.790 124.331,167.372 124.522 C 167.953 124.713,168.837 124.972,169.335 125.097 C 169.834 125.222,171.397 125.614,172.810 125.969 C 176.934 127.005,182.001 128.188,185.196 128.862 C 186.443 129.125,187.938 129.453,188.520 129.591 C 189.101 129.729,190.869 130.075,192.447 130.361 C 195.738 130.957,196.677 131.266,196.677 131.751 C 196.677 132.055,183.157 145.923,179.824 149.037 L 178.531 150.245 175.897 149.875 C 174.448 149.671,171.835 149.304,170.091 149.060 C 157.212 147.258,150.826 145.875,142.755 143.142 C 135.660 140.739,130.207 138.334,125.888 135.702 C 106.152 123.675,96.371 105.144,103.235 92.781 C 105.093 89.436,110.878 84.255,115.765 81.561 C 117.683 80.504,117.715 80.500,118.126 81.268 M216.918 133.866 C 224.305 135.029,228.512 135.775,231.269 136.413 C 232.266 136.644,234.577 137.182,236.405 137.610 C 292.570 150.752,315.399 176.985,304.370 215.710 C 298.863 235.046,288.000 248.058,265.408 262.383 C 264.031 263.255,262.438 264.167,258.157 266.530 C 255.337 268.087,247.731 271.903,247.447 271.903 C 247.213 271.903,236.730 264.264,236.254 263.747 C 236.171 263.657,231.650 260.255,226.207 256.187 C 214.902 247.738,215.098 247.982,218.882 247.084 C 220.211 246.769,222.115 246.315,223.112 246.076 C 224.109 245.837,226.692 245.226,228.852 244.718 C 231.012 244.209,233.255 243.662,233.837 243.501 C 234.871 243.214,240.343 241.773,241.541 241.471 C 259.882 236.850,274.138 227.532,279.105 216.918 C 283.882 206.709,281.991 191.255,275.019 183.532 C 274.718 183.198,274.011 182.382,273.447 181.719 C 270.702 178.486,264.680 173.875,259.970 171.400 C 258.973 170.876,257.545 170.126,256.798 169.734 C 256.050 169.341,254.350 168.564,253.021 168.007 C 251.692 167.449,250.196 166.821,249.698 166.609 C 248.951 166.293,244.744 164.878,240.332 163.460 C 239.834 163.300,238.066 162.813,236.405 162.378 C 233.647 161.656,232.070 161.262,226.737 159.966 C 225.740 159.723,223.497 159.235,221.752 158.881 C 220.008 158.526,217.696 158.049,216.616 157.821 C 215.536 157.593,213.837 157.262,212.840 157.087 C 211.843 156.912,210.551 156.648,209.970 156.501 C 209.388 156.353,207.757 156.026,206.344 155.773 C 204.932 155.519,202.553 155.093,201.057 154.825 C 196.723 154.049,193.880 153.462,193.589 153.282 C 193.127 152.996,194.008 151.851,198.198 147.289 C 199.117 146.287,200.398 144.856,201.043 144.109 C 202.755 142.126,209.073 135.070,210.062 134.038 C 210.990 133.069,211.732 133.050,216.918 133.866 M165.446 184.412 C 166.588 184.646,168.814 185.062,170.393 185.338 C 171.971 185.614,173.807 185.962,174.471 186.112 C 175.136 186.261,176.903 186.601,178.399 186.866 C 183.812 187.829,187.308 188.494,193.505 189.743 C 195.166 190.077,197.613 190.561,198.943 190.818 C 202.947 191.592,205.531 192.088,206.647 192.297 C 207.228 192.405,208.520 192.672,209.517 192.890 C 210.514 193.108,212.417 193.513,213.746 193.791 C 216.961 194.464,222.867 196.155,225.378 197.122 C 236.137 201.266,239.290 203.311,241.225 207.400 C 245.574 216.593,238.518 225.240,220.393 232.931 C 218.731 233.636,216.420 234.647,215.257 235.178 C 214.094 235.709,211.290 236.931,209.025 237.894 L 204.909 239.644 200.798 236.967 C 195.919 233.790,193.394 232.151,189.920 229.909 C 187.129 228.108,171.595 218.351,167.280 215.689 C 165.817 214.787,164.254 213.812,163.806 213.523 C 163.358 213.234,162.787 212.904,162.538 212.790 C 162.289 212.675,161.564 212.258,160.928 211.861 C 159.227 210.802,151.988 206.797,148.338 204.897 C 143.290 202.269,143.366 202.553,146.738 198.968 C 147.935 197.695,151.531 193.804,154.729 190.321 L 160.544 183.988 161.957 183.988 C 162.734 183.988,164.304 184.179,165.446 184.412 M71.148 209.059 C 85.852 211.971,104.471 221.270,126.923 236.916 C 134.408 242.132,144.109 249.695,144.109 250.314 C 144.109 251.236,139.790 252.174,128.852 253.627 C 126.858 253.892,123.799 254.299,122.054 254.532 C 114.554 255.535,96.569 255.946,89.426 255.277 C 72.890 253.729,61.042 250.592,52.868 245.598 C 38.548 236.849,35.829 218.238,47.942 211.870 C 54.041 208.663,63.416 207.528,71.148 209.059 " stroke="none" fill="#cca455" fill-rule="evenodd"></path></g></svg>